<svg xmlns="http://www.w3.org/2000/svg" viewBox="0 0 100 100" class="fill-current w-10 text-white p-2 bg-red-500 rounded-full">
  <path d="M50 5L11.029 27.5v45l1.29.746L50 95l38.971-22.5v-45L50 5zm0 7.595l15.566 23.024H34.434L50 12.596zm-8.425 3.236l-12.8 18.932-9.995-5.77L41.575 15.83zm16.851 0l22.794 13.16-9.995 5.77-12.799-18.93zm-42.23 17.635l9.997 5.77-9.997 20.552V33.466zm67.608 0V59.79l-9.997-20.553 9.995-5.771zm-49.76 7.32h31.912L50 68.423 34.044 40.786zm-4.28 2.922l15.567 26.96L17.608 68.7l12.156-24.992zm40.472 0L82.393 68.7l-27.722 1.968 15.565-26.96zM24.62 74.378l22.797 1.62v11.543L24.62 74.38zm50.763 0L52.584 87.542V76l22.798-1.62z"/>
</svg>
